<svg version="1.1" id="Layer_1" xmlns="http://www.w3.org/2000/svg" xmlns:xlink="http://www.w3.org/1999/xlink" x="0px" y="0px" viewBox="0 0 512 512" width="48">
	<g>
		<path d="M137.9,242.1c-2.5-8.5-5.5-23.3-5.5-23.3h-0.4c0,0-3,14.8-5.5,23.3l-7.8,26.4h26.8L137.9,242.1z M464.1,143.5H267.2v225
		h196.9c9.4,0,16.9-7.5,16.9-16.9V160.4C481,151,473.5,143.5,464.1,143.5z M447.2,227.9c0,4.6-3.8,8.4-8.4,8.4h-8
		c-4.9,16.6-15.3,33.3-30,49.1c5.9,4.5,12,8.8,18.4,12.7c3.9,2.4,5.1,7.4,2.9,11.4l-5.6,9.8c-2.4,4.1-7.7,5.5-11.7,3
		c-8.9-5.5-17.2-11.3-24.9-17.5c-7.7,6.1-16,12-24.9,17.5c-4.1,2.5-9.4,1.1-11.7-3l-5.6-9.8c-2.2-3.9-1-9,3-11.4
		c6.5-4,12.7-8.2,18.4-12.7c-5.6-5.9-10.5-12-14.8-18.1c-2.8-4-1.5-9.6,2.6-12l4.6-2.7l5.1-3c3.8-2.2,8.7-1.2,11.2,2.4
		c3.5,4.9,7.6,9.8,12.2,14.7c9.5-10,16.7-20.3,21.1-30.4h-80.4c-4.6,0-8.4-3.8-8.4-8.4v-11.2c0-4.6,3.8-8.4,8.4-8.4h45v-11.2
		c0-4.6,3.8-8.4,8.4-8.4h11.2c4.6,0,8.4,3.8,8.4,8.4v11.2h45c4.6,0,8.4,3.8,8.4,8.4V227.9z M31,160.4v191.2
		c0,9.4,7.5,16.9,16.9,16.9h196.9v-225H47.9C38.5,143.5,31,151,31,160.4z M72.4,312.3l40.4-118.9c1.2-3.4,4.4-5.7,8-5.7h22.9
		c3.6,0,6.8,2.3,8,5.7l40.4,118.9c1.8,5.5-2.2,11.2-8,11.2H168c-3.7,0-7-2.5-8.1-6l-6.6-22.4H111l-6.4,22.4
		c-1.1,3.6-4.4,6.1-8.1,6.1H80.4C74.7,323.5,70.6,317.8,72.4,312.3z" />
	</g>
</svg>