<?xml version="1.0" standalone="no"?>
<!DOCTYPE svg PUBLIC "-//W3C//DTD SVG 20010904//EN"
 "http://www.w3.org/TR/2001/REC-SVG-20010904/DTD/svg10.dtd">
<svg version="1.0" xmlns="http://www.w3.org/2000/svg"
 width="512.000000pt" height="512.000000pt" viewBox="0 0 512.000000 512.000000"
 preserveAspectRatio="xMidYMid meet">
<metadata>
Created by potrace 1.14, written by Peter Selinger 2001-2017
</metadata>
<g transform="translate(0.000000,512.000000) scale(0.100000,-0.100000)"
fill="#000000" stroke="none">
<path d="M48 5103 c-14 -9 -31 -27 -37 -40 -8 -17 -11 -755 -11 -2504 0 -2297
1 -2483 17 -2509 9 -16 27 -33 40 -39 34 -16 4972 -16 5006 0 13 6 31 23 40
39 16 26 17 212 17 2509 0 1762 -3 2487 -11 2504 -6 13 -23 31 -39 40 -26 16
-168 17 -1882 17 -1436 -1 -1856 -3 -1868 -13 -65 -50 -65 -132 0 -170 23 -14
56 -17 174 -17 l146 0 0 -720 0 -720 -720 0 -720 0 0 720 0 720 145 1 c169 2
154 0 181 19 60 43 57 126 -6 163 -42 25 -432 25 -472 0z m3232 -903 l0 -720
-720 0 -720 0 0 720 0 720 720 0 720 0 0 -720z m1640 0 l0 -720 -720 0 -720 0
0 720 0 720 720 0 720 0 0 -720z m-3280 -1640 l0 -720 -720 0 -720 0 0 720 0
720 720 0 720 0 0 -720z m1640 0 l0 -720 -720 0 -720 0 0 720 0 720 720 0 720
0 0 -720z m1640 0 l0 -720 -720 0 -720 0 0 720 0 720 720 0 720 0 0 -720z
m-3280 -1640 l0 -720 -720 0 -720 0 0 720 0 720 720 0 720 0 0 -720z m1640 0
l0 -720 -720 0 -720 0 0 720 0 720 720 0 720 0 0 -720z m1640 0 l0 -720 -720
0 -720 0 0 720 0 720 720 0 720 0 0 -720z"/>
<path d="M2578 4692 c-10 -4 -47 -35 -82 -70 -189 -183 -306 -501 -252 -685
42 -145 186 -243 343 -233 210 14 356 232 291 436 -40 126 -171 224 -305 229
-39 2 -33 11 78 126 44 45 60 69 63 95 8 76 -64 130 -136 102z m29 -533 c74
-24 107 -114 69 -187 -62 -120 -246 -73 -246 63 0 94 86 154 177 124z"/>
<path d="M781 3044 c-13 -9 -30 -32 -38 -51 -12 -31 -12 -38 4 -71 22 -45 53
-62 113 -62 l46 0 0 -365 c0 -352 0 -365 20 -392 27 -36 80 -51 120 -32 59 28
60 33 59 503 l0 428 -33 29 c-32 29 -34 29 -150 29 -92 0 -123 -3 -141 -16z"/>
<path d="M2465 3039 c-61 -23 -116 -74 -146 -137 -31 -64 -32 -160 -2 -221
l22 -44 -28 -32 c-55 -63 -76 -122 -76 -215 0 -74 4 -93 29 -143 60 -120 172
-187 306 -183 128 3 227 66 288 181 23 43 27 62 27 140 0 84 -3 96 -34 157
-18 37 -40 69 -47 72 -19 7 -18 26 5 77 25 55 23 157 -3 212 -60 125 -212 185
-341 136z m140 -204 c30 -30 31 -54 4 -89 -26 -33 -62 -34 -95 -1 -35 35 -25
87 20 105 34 14 45 12 71 -15z m15 -330 c62 -32 88 -113 57 -175 -17 -33 -74
-70 -109 -70 -46 0 -96 26 -118 62 -67 111 55 243 170 183z"/>
<path d="M4042 3040 c-32 -20 -46 -53 -57 -133 -4 -27 -9 -59 -11 -70 -2 -12
-7 -42 -10 -67 -3 -25 -9 -63 -14 -85 -16 -70 -12 -111 15 -143 32 -39 65 -44
131 -21 126 45 230 0 241 -104 13 -116 -99 -192 -205 -138 -75 38 -125 32
-155 -18 -41 -69 -7 -131 96 -175 119 -52 274 -20 369 76 72 72 93 126 93 238
0 81 -4 102 -24 140 -63 120 -160 187 -286 197 -54 5 -65 9 -61 22 3 9 8 35
11 59 l7 43 51 -1 c165 -5 193 -1 226 29 35 33 41 73 16 120 -22 44 -61 52
-241 50 -138 -1 -166 -3 -192 -19z"/>
<path d="M654 1409 c-45 -23 -66 -96 -39 -140 27 -43 53 -49 212 -49 95 0 153
-4 153 -10 0 -5 -13 -38 -28 -72 -16 -35 -43 -94 -60 -133 -17 -38 -42 -95
-55 -125 -147 -330 -153 -346 -143 -385 9 -35 56 -75 88 -75 54 0 76 20 118
106 22 46 40 85 40 88 0 3 11 29 24 58 139 309 276 629 276 647 0 34 -23 72
-51 87 -22 11 -79 14 -271 13 -142 0 -252 -5 -264 -10z"/>
<path d="M868 5103 c-64 -41 -63 -128 4 -167 72 -43 165 26 144 107 -15 62
-94 94 -148 60z"/>
</g>
</svg>
